<?xml version="1.0" encoding="utf-8"?>
<svg xml:space="preserve" viewBox="0 0 100 100" y="0" x="0" xmlns="http://www.w3.org/2000/svg" id="圖層_1" version="1.1" style="height: 100%; width: 100%; background: none; shape-rendering: auto; animation-play-state: running; animation-delay: 0s;" width="200px" height="200px"><g class="ldl-scale" style="transform-origin: 50% 50%; transform: rotate(0deg) scale(0.8, 0.8); animation-play-state: running; animation-delay: 0s;"><g class="ldl-ani" style=""><g class="ldl-layer" style="animation-play-state: running; animation-delay: 0s;"><g class="ldl-ani" style="transform-origin: 50px 50px; transform: matrix(0.01, 0, 0, 0.01, 0, 0); animation: 1.11111s linear 0.512821s 1 normal forwards running bounce-in-06ac5b5f-e1a5-4598-a96f-5fe64d890dc9;"><path fill="#e15b64" d="M63.833 40.374c-8.612-8.612-19.241-11.944-23.742-7.443-.938.938-1.517 2.154-1.798 3.551l-22.16 43.776c-1.445 1.445-.866 4.366 1.292 6.524s5.079 2.737 6.524 1.292l43.776-22.16c1.397-.281 2.613-.859 3.551-1.798 4.501-4.501 1.169-15.131-7.443-23.742z" style="fill: rgb(59, 67, 104); animation-play-state: running; animation-delay: 0s;"></path></g></g><g class="ldl-layer" style="animation-play-state: running; animation-delay: 0s;"><g class="ldl-ani" style="transform-origin: 50px 50px; transform: matrix(0.01, 0, 0, 0.01, 0, 0); animation: 1.11111s linear 0.470085s 1 normal forwards running bounce-in-06ac5b5f-e1a5-4598-a96f-5fe64d890dc9;"><path fill="#c33737" d="M64.024 40.183c-8.813-8.813-19.692-12.223-24.298-7.617-.96.96-1.553 2.204-1.84 3.634-1.091 5.429 2.481 13.688 9.457 20.664 6.976 6.976 15.234 10.548 20.664 9.457 1.43-.287 2.674-.88 3.634-1.84 4.606-4.606 1.196-15.485-7.617-24.298z" style="fill: rgb(25, 29, 58); animation-play-state: running; animation-delay: 0s;"></path></g></g><g class="ldl-layer" style="animation-play-state: running; animation-delay: 0s;"><g class="ldl-ani" style="transform-origin: 50px 50px; transform: matrix(0.01, 0, 0, 0.01, 0, 0); animation: 1.11111s linear 0.42735s 1 normal forwards running bounce-in-06ac5b5f-e1a5-4598-a96f-5fe64d890dc9;"><circle fill="#a0c8d7" r="3.746" cy="27.842" cx="67.115" style="fill: rgb(147, 219, 233); animation-play-state: running; animation-delay: 0s;"></circle></g></g><g class="ldl-layer" style="animation-play-state: running; animation-delay: 0s;"><g class="ldl-ani" style="transform-origin: 50px 50px; transform: matrix(0.01, 0, 0, 0.01, 0, 0); animation: 1.11111s linear 0.384615s 1 normal forwards running bounce-in-06ac5b5f-e1a5-4598-a96f-5fe64d890dc9;"><circle fill="#abbd81" r="5.417" cy="19.141" cx="81.925" style="fill: rgb(94, 111, 163); animation-play-state: running; animation-delay: 0s;"></circle></g></g><g class="ldl-layer" style="animation-play-state: running; animation-delay: 0s;"><g class="ldl-ani" style="transform-origin: 50px 50px; transform: matrix(0.01, 0, 0, 0.01, 0, 0); animation: 1.11111s linear 0.34188s 1 normal forwards running bounce-in-06ac5b5f-e1a5-4598-a96f-5fe64d890dc9;"><circle fill="#f8b26a" r="4.264" cy="46.571" cx="13.695" style="fill: rgb(104, 156, 197); animation-play-state: running; animation-delay: 0s;"></circle></g></g><g class="ldl-layer" style="animation-play-state: running; animation-delay: 0s;"><g class="ldl-ani" style="transform-origin: 50px 50px; transform: matrix(0.01, 0, 0, 0.01, 0, 0); animation: 1.11111s linear 0.299145s 1 normal forwards running bounce-in-06ac5b5f-e1a5-4598-a96f-5fe64d890dc9;"><circle fill="#a0c8d7" r="3.227" cy="66.279" cx="87.342" style="fill: rgb(147, 219, 233); animation-play-state: running; animation-delay: 0s;"></circle></g></g><g class="ldl-layer" style="animation-play-state: running; animation-delay: 0s;"><g class="ldl-ani" style=""><g style="animation-play-state: running; animation-delay: 0s;"><g class="ldl-layer" style="animation-play-state: running; animation-delay: 0s;"><g class="ldl-ani" style="transform-origin: 50px 50px; transform: matrix(0.01, 0, 0, 0.01, 0, 0); animation: 1.11111s linear 0.25641s 1 normal forwards running bounce-in-06ac5b5f-e1a5-4598-a96f-5fe64d890dc9;"><path fill="#a0c8d7" d="M49.999 41.615a1.382 1.382 0 0 1-1.186-2.093c6.352-10.604 6.799-20.403 1.368-29.955a1.382 1.382 0 1 1 2.404-1.366c5.886 10.35 5.415 21.367-1.398 32.742-.26.433-.718.672-1.188.672z" style="fill: rgb(147, 219, 233); animation-play-state: running; animation-delay: 0s;"></path></g></g></g></g></g><g class="ldl-layer" style="animation-play-state: running; animation-delay: 0s;"><g class="ldl-ani" style=""><g style="animation-play-state: running; animation-delay: 0s;"><g class="ldl-layer" style="animation-play-state: running; animation-delay: 0s;"><g class="ldl-ani" style="transform-origin: 50px 50px; transform: matrix(0.01, 0, 0, 0.01, 0, 0); animation: 1.11111s linear 0.213675s 1 normal forwards running bounce-in-06ac5b5f-e1a5-4598-a96f-5fe64d890dc9;"><path fill="#abbd81" d="M60.748 56.926a1.382 1.382 0 0 1-1.245-1.983c6.034-12.548 17.871-18.149 29.464-13.937a1.383 1.383 0 0 1-.946 2.6c-10.341-3.76-20.558 1.16-26.027 12.536a1.379 1.379 0 0 1-1.246.784z" style="fill: rgb(94, 111, 163); animation-play-state: running; animation-delay: 0s;"></path></g></g></g></g></g><g class="ldl-layer" style="animation-play-state: running; animation-delay: 0s;"><g class="ldl-ani" style=""><g style="animation-play-state: running; animation-delay: 0s;"><g class="ldl-layer" style="animation-play-state: running; animation-delay: 0s;"><g class="ldl-ani" style="transform-origin: 50px 50px; transform: matrix(0.01, 0, 0, 0.01, 0, 0); animation: 1.11111s linear 0.17094s 1 normal forwards running bounce-in-06ac5b5f-e1a5-4598-a96f-5fe64d890dc9;"><path fill="#abbd81" d="M30.637 37.719a1.382 1.382 0 0 1-1.309-1.828c2.63-7.738 1.474-15.193-3.533-22.79a1.382 1.382 0 1 1 2.308-1.522c5.433 8.241 6.726 16.72 3.843 25.201a1.38 1.38 0 0 1-1.309.939z" style="fill: rgb(94, 111, 163); animation-play-state: running; animation-delay: 0s;"></path></g></g></g></g></g><g class="ldl-layer" style="animation-play-state: running; animation-delay: 0s;"><g class="ldl-ani" style=""><g style="animation-play-state: running; animation-delay: 0s;"><g class="ldl-layer" style="animation-play-state: running; animation-delay: 0s;"><g class="ldl-ani" style="transform-origin: 50px 50px; transform: matrix(0.01, 0, 0, 0.01, 0, 0); animation: 1.11111s linear 0.128205s 1 normal forwards running bounce-in-06ac5b5f-e1a5-4598-a96f-5fe64d890dc9;"><path fill="#f8b26a" d="M76.055 89.711a5.99 5.99 0 0 1-2.021-.342c-2.548-.906-4.394-3.464-5.641-7.82-.763-3.191-1.961-5.123-3.576-5.802-1.736-.729-4.213-.144-7.357 1.745-4.978 2.858-8.9 3.547-12.012 2.12-3.08-1.414-5.095-4.796-6.159-10.341a1.383 1.383 0 0 1 2.716-.52c.872 4.539 2.418 7.348 4.597 8.347 2.209 1.015 5.392.343 9.458-1.99 3.975-2.387 7.196-3.015 9.831-1.91 2.473 1.04 4.216 3.613 5.179 7.65.954 3.329 2.269 5.339 3.893 5.917 1.448.512 3.375-.059 5.731-1.7a1.382 1.382 0 1 1 1.581 2.269c-2.273 1.581-4.356 2.377-6.22 2.377z" style="fill: rgb(104, 156, 197); animation-play-state: running; animation-delay: 0s;"></path></g></g></g></g></g><g class="ldl-layer" style="animation-play-state: running; animation-delay: 0s;"><g class="ldl-ani" style="transform-origin: 50px 50px; transform: matrix(0.01, 0, 0, 0.01, 0, 0); animation: 1.11111s linear 0.0854701s 1 normal forwards running bounce-in-06ac5b5f-e1a5-4598-a96f-5fe64d890dc9;"><circle fill="#abbd81" r="2.853" cy="89.647" cx="55.503" style="fill: rgb(94, 111, 163); animation-play-state: running; animation-delay: 0s;"></circle></g></g><g class="ldl-layer" style="animation-play-state: running; animation-delay: 0s;"><g class="ldl-ani" style="transform-origin: 50px 50px; transform: matrix(0.01, 0, 0, 0.01, 0, 0); animation: 1.11111s linear 0.042735s 1 normal forwards running bounce-in-06ac5b5f-e1a5-4598-a96f-5fe64d890dc9;"><path d="M38.014 15.107l1.152 7.146 6.915 2.305-2.305-7.377z" fill="#f8b26a" style="fill: rgb(104, 156, 197); animation-play-state: running; animation-delay: 0s;"></path></g></g><g class="ldl-layer" style="animation-play-state: running; animation-delay: 0s;"><g class="ldl-ani" style="transform-origin: 50px 50px; transform: matrix(0.01, 0, 0, 0.01, 0, 0); animation: 1.11111s linear 0s 1 normal forwards running bounce-in-06ac5b5f-e1a5-4598-a96f-5fe64d890dc9;"><path d="M81.925 50.835l-1.959 4.708 1.959 3.13 5.417-3.919z" fill="#f8b26a" style="fill: rgb(104, 156, 197); animation-play-state: running; animation-delay: 0s;"></path></g></g><metadata xmlns:d="https://loading.io/stock/" style="animation-play-state: running; animation-delay: 0s;"><d:name style="animation-play-state: running; animation-delay: 0s;">cheers</d:name><d:tags style="animation-play-state: running; animation-delay: 0s;">celebrate,win,party,happy birthday,festival,enjoy,cracker,cheers,people</d:tags><d:license style="animation-play-state: running; animation-delay: 0s;">pro</d:license><d:slug style="animation-play-state: running; animation-delay: 0s;">r796sq</d:slug></metadata></g></g><style id="bounce-in-06ac5b5f-e1a5-4598-a96f-5fe64d890dc9" data-anikit="">@keyframes bounce-in-06ac5b5f-e1a5-4598-a96f-5fe64d890dc9
{
  0% {
    animation-timing-function: cubic-bezier(0.0383,0.3388,0.0421,0.6652);
    transform: matrix(0.01,0,0,0.01,0,0);
    opacity: 1;
  }
  4.7% {
    animation-timing-function: cubic-bezier(0.3296,0.3336,0.5772,0.6672);
    transform: matrix(0.556,0,0,0.556,0,0);
    opacity: 1;
  }
  8.4% {
    animation-timing-function: cubic-bezier(0.0781,0.1617,0.0874,0.9301);
    transform: matrix(0.979,0,0,0.979,0,0);
    opacity: 1;
  }
  12.4% {
    animation-timing-function: cubic-bezier(0.8341,0.1496,0.8634,0.7673);
    transform: matrix(1.153,0,0,1.153,0,0);
    opacity: 1;
  }
  16.3% {
    animation-timing-function: cubic-bezier(0.3264,0.3332,0.5758,0.6695);
    transform: matrix(1.008,0,0,1.008,0,0);
    opacity: 1;
  }
  21.2% {
    animation-timing-function: cubic-bezier(0.0921,0.1883,0.3277,1);
    transform: matrix(0.704,0,0,0.704,0,0);
    opacity: 1;
  }
  24.5% {
    animation-timing-function: cubic-bezier(0.6905,0.0944,0.8759,0.7624);
    transform: matrix(0.626,0,0,0.626,0,0);
    opacity: 1;
  }
  27.7% {
    animation-timing-function: cubic-bezier(0.3688,0.332,0.624,0.6684);
    transform: matrix(0.704,0,0,0.704,0,0);
    opacity: 1;
  }
  32.6% {
    animation-timing-function: cubic-bezier(0.1368,0.2364,0.2451,0.9049);
    transform: matrix(0.958,0,0,0.958,0,0);
    opacity: 1;
  }
  37.4% {
    animation-timing-function: cubic-bezier(0.5936,0.0846,0.3495,1);
    transform: matrix(1.085,0,0,1.085,0,0);
    opacity: 1;
  }
  49.5% {
    animation-timing-function: cubic-bezier(0.5522,0.0981,0.3807,1);
    transform: matrix(0.802,0,0,0.802,0,0);
    opacity: 1;
  }
  62.4% {
    animation-timing-function: cubic-bezier(0.4497,0.1349,0.4911,1);
    transform: matrix(1.044,0,0,1.044,0,0);
    opacity: 1;
  }
  74.1% {
    animation-timing-function: cubic-bezier(0.429,0,0.5239,1);
    transform: matrix(0.914,0,0,0.914,0,0);
    opacity: 1;
  }
  87% {
    animation-timing-function: cubic-bezier(0.3501,0,0.6422,1);
    transform: matrix(1.013,0,0,1.013,0,0);
    opacity: 1;
  }
  95.8% {
    animation-timing-function: cubic-bezier(0.3653,0,0.6776,1);
    transform: matrix(0.992,0,0,0.992,0,0);
    opacity: 1;
  }
  100% {
    transform: matrix(1,0,0,1,0,0);
    opacity: 1;
  }
}</style><!-- [ldio] generated by https://loading.io/ --></svg>